<svg width="27" height="22" viewBox="0 0 27 22" fill="none" xmlns="http://www.w3.org/2000/svg">
<path d="M19.6721 2.92135C20.6577 1.34409 22.7759 0.9369 24.276 2.03634C25.6271 3.02652 25.9856 4.89125 25.0979 6.31178L17.1203 19.0786C16.1347 20.6559 14.0165 21.0631 12.5163 19.9637C11.1653 18.9735 10.8068 17.1087 11.6945 15.6882L19.6721 2.92135Z" fill="#1355FF"/>
<path d="M9.8032 2.92135C10.7888 1.34409 12.907 0.9369 14.4071 2.03634C15.7582 3.02652 16.1167 4.89125 15.229 6.31178L7.25139 19.0786C6.2658 20.6559 4.14757 21.0631 2.64744 19.9637C1.29639 18.9735 0.937929 17.1087 1.82557 15.6882L9.8032 2.92135Z" fill="#1355FF"/>
<path d="M9.06912 2.92135C8.08353 1.34409 5.9653 0.9369 4.46517 2.03634C3.11412 3.02652 2.75566 4.89125 3.6433 6.31178L11.6209 19.0786C12.6065 20.6559 14.7247 21.0631 16.2249 19.9637C17.5759 18.9735 17.9344 17.1087 17.0467 15.6882L9.06912 2.92135Z" fill="#080808" fill-opacity="0.84"/>
</svg>
