<svg width="60" height="60" viewBox="0 0 60 60" fill="none" xmlns="http://www.w3.org/2000/svg">
<circle cx="30" cy="30" r="30" fill="#FF9431"/>
<path d="M27.0264 31.2113H24.9264L25.9502 35.8838L27.0264 31.2113ZM36.2139 31.2113H34.0877L35.1377 35.8313L36.2139 31.2113ZM31.2789 29.1113L30.5439 25.83L29.8352 29.1113H31.2789ZM42.1202 31.2113H38.6027L36.3977 40.7663H33.7464L31.6989 31.2113H29.3627L27.2627 40.7663H24.5852L22.3802 31.2113H18.9414V29.1113H21.9339L20.2014 21.6038H22.7739L24.4539 29.1113H27.4989L29.1789 21.6038H31.9877L33.6677 29.1113H36.6864L38.3927 21.6038H40.8864L39.1014 29.1113H42.1202V31.2113Z" fill="white"/>
</svg>
