<svg width="60" height="60" viewBox="0 0 60 60" fill="none" xmlns="http://www.w3.org/2000/svg">
<circle cx="30" cy="30" r="30" fill="#35CED8"/>
<path d="M19.3725 42.3469C18.6746 42.3469 18.0839 42.1051 17.6003 41.6216C17.1168 41.138 16.875 40.5473 16.875 39.8494V21.3576C16.875 20.6597 17.1168 20.0689 17.6003 19.5854C18.0839 19.1018 18.6746 18.8601 19.3725 18.8601H21.2855V17.0002C21.2855 16.6973 21.3869 16.4445 21.5897 16.2417C21.7925 16.0389 22.0453 15.9375 22.3482 15.9375C22.6511 15.9375 22.9039 16.0389 23.1067 16.2417C23.3095 16.4445 23.4109 16.6973 23.4109 17.0002V18.8601H33.879V16.9737C33.879 16.6796 33.9782 16.4334 34.1766 16.2351C34.375 16.0367 34.6212 15.9375 34.9152 15.9375C35.2092 15.9375 35.4554 16.0367 35.6538 16.2351C35.8522 16.4334 35.9514 16.6796 35.9514 16.9737V18.8601H37.8643C38.5622 18.8601 39.153 19.1018 39.6365 19.5854C40.1201 20.0689 40.3618 20.6597 40.3618 21.3576V27.317C40.3618 27.611 40.2626 27.8572 40.0642 28.0556C39.8659 28.2539 39.6197 28.3531 39.3256 28.3531C39.0316 28.3531 38.7854 28.2539 38.5871 28.0556C38.3887 27.8572 38.2895 27.611 38.2895 27.317V26.8839H18.9473V39.8494C18.9473 39.9557 18.9916 40.0531 19.0802 40.1417C19.1688 40.2303 19.2662 40.2746 19.3725 40.2746H27.476C27.77 40.2746 28.0162 40.3737 28.2146 40.5721C28.413 40.7705 28.5121 41.0167 28.5121 41.3107C28.5121 41.6047 28.413 41.8509 28.2146 42.0493C28.0162 42.2477 27.77 42.3469 27.476 42.3469H19.3725ZM18.9473 24.8115H38.2895V21.3576C38.2895 21.2513 38.2452 21.1538 38.1567 21.0652C38.0681 20.9767 37.9706 20.9324 37.8643 20.9324H19.3725C19.2662 20.9324 19.1688 20.9767 19.0802 21.0652C18.9916 21.1538 18.9473 21.2513 18.9473 21.3576V24.8115ZM31.541 41.0982V39.2171C31.541 39.0506 31.5711 38.8921 31.6313 38.7415C31.6916 38.591 31.7863 38.451 31.9156 38.3217L39.0414 31.2305C39.2132 31.0587 39.3992 30.9378 39.5993 30.8678C39.7995 30.7979 39.9996 30.7629 40.1998 30.7629C40.4141 30.7629 40.6236 30.8037 40.8281 30.8851C41.0327 30.9666 41.2165 31.0888 41.3794 31.2518L42.6574 32.543C42.8062 32.7148 42.9213 32.9008 43.0028 33.1009C43.0843 33.3011 43.125 33.5013 43.125 33.7014C43.125 33.9016 43.0878 34.1052 43.0134 34.3125C42.939 34.5197 42.8203 34.7092 42.6574 34.881L35.5662 41.9722C35.4368 42.1016 35.2969 42.1963 35.1464 42.2565C34.9958 42.3168 34.8373 42.3469 34.6708 42.3469H32.7897C32.4337 42.3469 32.1366 42.2278 31.8984 41.9895C31.6601 41.7513 31.541 41.4542 31.541 41.0982ZM33.1882 40.6996H34.5007L38.9856 36.1935L38.3506 35.5373L37.7076 34.889L33.1882 39.3871V40.6996ZM38.3506 35.5373L37.7076 34.889L38.9856 36.1935L38.3506 35.5373Z" fill="white"/>
</svg>
