<svg width="60" height="60" viewBox="0 0 60 60" fill="none" xmlns="http://www.w3.org/2000/svg">
<circle cx="30" cy="30" r="30" fill="#FD4E4E"/>
<path d="M21.7857 43.421C21.2108 43.421 20.6632 43.2257 20.143 42.835C19.6227 42.4443 19.2806 41.9666 19.1167 41.4018C18.4588 39.1305 17.9269 37.2059 17.521 35.628C17.1152 34.0501 16.7948 32.6897 16.56 31.547C16.3252 30.4043 16.1627 29.4074 16.0726 28.5562C15.9825 27.705 15.9375 26.8704 15.9375 26.0526C15.9375 23.8542 16.7037 21.9889 18.2361 20.4565C19.7685 18.9241 21.6338 18.1579 23.8322 18.1579H32.1218C32.8323 17.2105 33.7007 16.4474 34.727 15.8684C35.7533 15.2895 36.8586 15 38.0428 15C38.478 15 38.8499 15.1544 39.1586 15.4631C39.4673 15.7718 39.6217 16.1437 39.6217 16.5789C39.6217 16.6862 39.607 16.791 39.5776 16.8932C39.5483 16.9954 39.5174 17.0971 39.485 17.1983C39.3696 17.508 39.2583 17.8431 39.151 18.2034C39.0438 18.5637 38.9435 19.0212 38.8504 19.5759L42.9588 23.6842H44.5104C44.9172 23.6842 45.2568 23.8204 45.5291 24.0927C45.8014 24.3649 45.9375 24.7045 45.9375 25.1114V32.2925C45.9375 32.6042 45.8489 32.8815 45.6718 33.1245C45.4947 33.3674 45.2502 33.5445 44.9385 33.6558L41.6288 34.7459L39.6399 41.3836C39.4496 42.0071 39.1035 42.5025 38.6015 42.8699C38.0994 43.2373 37.5286 43.421 36.8889 43.421H34.5813C33.7938 43.421 33.1213 43.1422 32.5636 42.5845C32.0059 42.0268 31.727 41.3542 31.727 40.5668V40.2631H26.9901V40.5668C26.9901 41.3542 26.7112 42.0268 26.1535 42.5845C25.5958 43.1422 24.9233 43.421 24.1358 43.421H21.7857ZM21.8586 41.0527H24.1358C24.2775 41.0527 24.3939 41.0071 24.485 40.916C24.5761 40.8249 24.6217 40.7085 24.6217 40.5668V37.8948H34.0954V40.5668C34.0954 40.7085 34.141 40.8249 34.2321 40.916C34.3232 41.0071 34.4396 41.0527 34.5813 41.0527H36.8889C37.0003 41.0527 37.0989 41.0223 37.185 40.9616C37.271 40.9008 37.3292 40.8148 37.3596 40.7034L39.7007 32.9211L43.5691 31.6184V26.0526H41.9902L36.4638 20.5263C36.4638 20.0303 36.4993 19.5222 36.5701 19.002C36.641 18.4817 36.7472 17.9949 36.8889 17.5415C36.1561 17.7419 35.4927 18.1113 34.8985 18.6498C34.3044 19.1882 33.8656 19.8137 33.5822 20.5263H23.8322C22.3059 20.5263 21.0033 21.0658 19.9243 22.1447C18.8454 23.2237 18.3059 24.5263 18.3059 26.0526C18.3059 27.1113 18.5721 28.9145 19.1045 31.462C19.6369 34.0096 20.3879 37.08 21.3575 40.6731C21.3879 40.7844 21.4511 40.8755 21.5473 40.9464C21.6435 41.0172 21.7472 41.0527 21.8586 41.0527ZM37.2533 28.2388C37.6399 28.2388 37.9694 28.1027 38.2417 27.8304C38.5139 27.5582 38.65 27.2287 38.65 26.8421C38.65 26.4555 38.5139 26.126 38.2417 25.8538C37.9694 25.5815 37.6399 25.4454 37.2533 25.4454C36.8667 25.4454 36.5372 25.5815 36.265 25.8538C35.9927 26.126 35.8566 26.4555 35.8566 26.8421C35.8566 27.2287 35.9927 27.5582 36.265 27.8304C36.5372 28.1027 36.8667 28.2388 37.2533 28.2388ZM31.3323 24.8684C31.6683 24.8684 31.9497 24.755 32.1764 24.5283C32.4031 24.3016 32.5165 24.0202 32.5165 23.6842C32.5165 23.3482 32.4031 23.0668 32.1764 22.8401C31.9497 22.6134 31.6683 22.5 31.3323 22.5H25.8059C25.4698 22.5 25.1885 22.6134 24.9618 22.8401C24.735 23.0668 24.6217 23.3482 24.6217 23.6842C24.6217 24.0202 24.735 24.3016 24.9618 24.5283C25.1885 24.755 25.4698 24.8684 25.8059 24.8684H31.3323Z" fill="white"/>
</svg>
