<svg width="54" height="54" viewBox="0 0 54 54" fill="none" xmlns="http://www.w3.org/2000/svg">
<g filter="url(#filter0_d_186_78)">
<circle cx="25" cy="27" r="24" fill="white" shape-rendering="crispEdges"/>
<circle cx="25" cy="27" r="24.5" stroke="#CDD1DE" stroke-opacity="0.6" shape-rendering="crispEdges"/>
</g>
<path d="M14.2929 26.2929C13.9024 26.6834 13.9024 27.3166 14.2929 27.7071L20.6569 34.0711C21.0474 34.4616 21.6805 34.4616 22.0711 34.0711C22.4616 33.6805 22.4616 33.0474 22.0711 32.6569L16.4142 27L22.0711 21.3431C22.4616 20.9526 22.4616 20.3195 22.0711 19.9289C21.6805 19.5384 21.0474 19.5384 20.6569 19.9289L14.2929 26.2929ZM37 26L15 26L15 28L37 28L37 26Z" fill="#515A73"/>
<defs>
<filter id="filter0_d_186_78" x="0" y="0" width="54" height="54" filterUnits="userSpaceOnUse" color-interpolation-filters="sRGB">
<feFlood flood-opacity="0" result="BackgroundImageFix"/>
<feColorMatrix in="SourceAlpha" type="matrix" values="0 0 0 0 0 0 0 0 0 0 0 0 0 0 0 0 0 0 127 0" result="hardAlpha"/>
<feOffset dx="2"/>
<feGaussianBlur stdDeviation="1"/>
<feComposite in2="hardAlpha" operator="out"/>
<feColorMatrix type="matrix" values="0 0 0 0 0 0 0 0 0 0 0 0 0 0 0 0 0 0 0.25 0"/>
<feBlend mode="multiply" in2="BackgroundImageFix" result="effect1_dropShadow_186_78"/>
<feBlend mode="normal" in="SourceGraphic" in2="effect1_dropShadow_186_78" result="shape"/>
</filter>
</defs>
</svg>
