<svg width="20" height="20" viewBox="0 0 20 20" fill="none" xmlns="http://www.w3.org/2000/svg">
<path d="M3.70851 15.5709C4.60325 14.9069 5.57794 14.3826 6.6326 13.998C7.68725 13.6134 8.80972 13.4211 10 13.4211C11.1903 13.4211 12.3128 13.6134 13.3674 13.998C14.4221 14.3826 15.3968 14.9069 16.2915 15.5709C16.946 14.8516 17.4646 14.0189 17.8472 13.0729C18.2298 12.1269 18.4211 11.1026 18.4211 10C18.4211 7.66666 17.6009 5.67981 15.9605 4.03946C14.3202 2.3991 12.3333 1.57893 10 1.57893C7.66666 1.57893 5.67981 2.3991 4.03946 4.03946C2.3991 5.67981 1.57893 7.66666 1.57893 10C1.57893 11.1026 1.77022 12.1269 2.15282 13.0729C2.53542 14.0189 3.05398 14.8516 3.70851 15.5709ZM10.0003 10.7894C9.03924 10.7894 8.22875 10.4596 7.56883 9.79989C6.90892 9.14017 6.57896 8.32979 6.57896 7.36873C6.57896 6.40766 6.90882 5.59716 7.56852 4.93725C8.22824 4.27734 9.03863 3.94738 9.99968 3.94738C10.9608 3.94738 11.7712 4.27723 12.4312 4.93693C13.0911 5.59666 13.421 6.40704 13.421 7.3681C13.421 8.32917 13.0912 9.13966 12.4315 9.79958C11.7718 10.4595 10.9614 10.7894 10.0003 10.7894ZM10 20C8.61133 20 7.3087 19.7389 6.09212 19.2166C4.87552 18.6943 3.81715 17.9831 2.91701 17.083C2.01688 16.1828 1.30569 15.1245 0.783423 13.9079C0.261141 12.6913 0 11.3887 0 10C0 8.61133 0.261141 7.3087 0.783423 6.09212C1.30569 4.87552 2.01688 3.81715 2.91701 2.91701C3.81715 2.01688 4.87552 1.30569 6.09212 0.783424C7.3087 0.261142 8.61133 0 10 0C11.3887 0 12.6913 0.261142 13.9079 0.783424C15.1245 1.30569 16.1828 2.01688 17.083 2.91701C17.9831 3.81715 18.6943 4.87552 19.2166 6.09212C19.7389 7.3087 20 8.61133 20 10C20 11.3887 19.7389 12.6913 19.2166 13.9079C18.6943 15.1245 17.9831 16.1828 17.083 17.083C16.1828 17.9831 15.1245 18.6943 13.9079 19.2166C12.6913 19.7389 11.3887 20 10 20ZM10 18.4211C10.9501 18.4211 11.8661 18.2682 12.748 17.9626C13.6299 17.6569 14.413 17.2294 15.0972 16.6802C14.413 16.1512 13.64 15.7389 12.7783 15.4433C11.9167 15.1478 10.9906 15 10 15C9.00943 15 8.08163 15.1461 7.21657 15.4383C6.35152 15.7304 5.58026 16.1444 4.9028 16.6802C5.58701 17.2294 6.37009 17.6569 7.25202 17.9626C8.13393 18.2682 9.04993 18.4211 10 18.4211ZM10 9.21055C10.5236 9.21055 10.9615 9.03444 11.3138 8.68221C11.666 8.32996 11.8421 7.89203 11.8421 7.36841C11.8421 6.8448 11.666 6.40687 11.3138 6.05462C10.9615 5.70239 10.5236 5.52628 10 5.52628C9.47638 5.52628 9.03845 5.70239 8.68621 6.05462C8.33398 6.40687 8.15786 6.8448 8.15786 7.36841C8.15786 7.89203 8.33398 8.32996 8.68621 8.68221C9.03845 9.03444 9.47638 9.21055 10 9.21055Z" fill="black"/>
</svg>
