<svg width="10" height="11" viewBox="0 0 10 11" fill="none" xmlns="http://www.w3.org/2000/svg">
<path d="M9.5 10.4545C9.35 10.4545 9.25 10.4023 9.15 10.2977L5 5.95909L0.85 10.2977C0.65 10.5068 0.35 10.5068 0.15 10.2977C-0.05 10.0886 -0.05 9.775 0.15 9.56591L4.3 5.22727L0.15 0.888636C-0.05 0.679545 -0.05 0.365909 0.15 0.156818C0.35 -0.0522727 0.65 -0.0522727 0.85 0.156818L5 4.49545L9.15 0.156818C9.35 -0.0522727 9.65 -0.0522727 9.85 0.156818C10.05 0.365909 10.05 0.679545 9.85 0.888636L5.7 5.22727L9.85 9.56591C10.05 9.775 10.05 10.0886 9.85 10.2977C9.75 10.4023 9.65 10.4545 9.5 10.4545Z" fill="#0B3399"/>
</svg>
