<svg width="16" height="16" viewBox="0 0 16 16" fill="none" xmlns="http://www.w3.org/2000/svg">
<path d="M7.11111 8.88889V0H8.88889V8.88889H7.11111ZM8 16C6.93333 16 5.86667 15.8222 4.88889 15.3778C3.91111 14.9333 3.11111 14.4 2.31111 13.6889C1.6 12.9778 0.977778 12.0889 0.622222 11.1111C0.266667 10.1333 0 9.06667 0 8C0 6.84444 0.266667 5.68889 0.711111 4.62222C1.15556 3.55556 1.86667 2.66667 2.84444 1.86667L4.08889 3.11111C3.37778 3.73333 2.75556 4.44444 2.4 5.33333C2.04444 6.22222 1.77778 7.02222 1.77778 8C1.77778 9.68889 2.4 11.2 3.55556 12.3556C4.8 13.6 6.22222 14.2222 8 14.2222C9.68889 14.2222 11.2 13.6 12.4444 12.3556C13.6889 11.1111 14.2222 9.68889 14.2222 8C14.2222 7.02222 14.0444 6.13333 13.6 5.33333C13.2444 4.53333 12.6222 3.73333 11.9111 3.2L13.1556 1.95556C14.0444 2.75556 14.7556 3.64444 15.2 4.71111C15.7333 5.68889 16 6.84444 16 8C16 9.06667 15.8222 10.1333 15.3778 11.1111C14.9333 12.0889 14.4 12.8889 13.6889 13.6889C12.9778 14.4 12.0889 15.0222 11.2 15.3778C10.3111 15.7333 9.06667 16 8 16Z" fill="#080808"/>
</svg>
